# xmcd
#
# Track frame offsets: 
#        150
#        16292
#        30330
#        43607
#        61797
#        76295
#        87535
#        105337
#        117850
#        128495
#        143900
#        156210
#
# Disc length: 2297 seconds
#
# Revision: 0
# Processed by: cddbd v1.5.2PL0 Copyright (c) Steve Scherf et al.
# Submitted via: ExactAudioCopy v0.95b4
#
DISCID=8908f70c
DTITLE=Valerie Smith - Patchwork Heart
DYEAR=1997
DGENRE=Bluegrass
TTITLE0=Patchwork Heart
TTITLE1=Red Clay Halo
TTITLE2=Lonesome Midnight Train
TTITLE3=My Heart Won't Let Your Memory Go Away
TTITLE4=Three Men On A Mountain
TTITLE5=Second Fiddle To An Old Guitar
TTITLE6=Summer's Last Dance
TTITLE7=Bittersweet
TTITLE8=Fast Train Through Arkansas
TTITLE9=My Baby's Gone
TTITLE10=Greener Pastures
TTITLE11=Rough and Rocky Road
EXTD=
EXTT0=
EXTT1=
EXTT2=
EXTT3=
EXTT4=
EXTT5=
EXTT6=
EXTT7=
EXTT8=
EXTT9=
EXTT10=
EXTT11=
PLAYORDER=
